HIERARCHY
ROOT Hips
{
  OFFSET 13.6774 106.653 -34.4427
  CHANNELS 6 Xposition Yposition Zposition Zrotation Xrotation Yrotation
  JOINT ToSpine
  {
    OFFSET -2.69724 7.43032 -0.144315
    CHANNELS 3 Zrotation Xrotation Yrotation
    JOINT Spine
    {
      OFFSET -0.0310711 10.7595 1.96963
      CHANNELS 3 Zrotation Xrotation Yrotation
      JOINT Spine1
      {
        OFFSET 19.9056 3.91189 0.764692
        CHANNELS 3 Zrotation Xrotation Yrotation
        JOINT Neck
        {
          OFFSET 25.9749 7.03908 -0.130764
          CHANNELS 3 Zrotation Xrotation Yrotation
          JOINT Head
          {
            OFFSET 9.52751 0.295786 -0.907742
            CHANNELS 3 Zrotation Xrotation Yrotation
            End Site
            {
              OFFSET 16.4037 0.713936 2.7358
            }
          }
        }
        JOINT LeftShoulder
        {
          OFFSET 17.7449 4.33886 11.7777
          CHANNELS 3 Zrotation Xrotation Yrotation
          JOINT LeftArm
          {
            OFFSET 0.911315 1.27913 9.80584
            CHANNELS 3 Zrotation Xrotation Yrotation
            JOINT LeftForeArm
            {
              OFFSET 28.6126 1.18197 -3.53199
              CHANNELS 3 Zrotation Xrotation Yrotation
              JOINT LeftHand
              {
                OFFSET 27.5088 0.0218783 0.327423
                CHANNELS 3 Zrotation Xrotation Yrotation
                End Site
                {
                  OFFSET 18.6038 -0.000155887 0.382096
                }
              }
            }
          }
        }
        JOINT RightShoulder
        {
          OFFSET 17.1009 2.89543 -12.2328
          CHANNELS 3 Zrotation Xrotation Yrotation
          JOINT RightArm
          {
            OFFSET 1.4228 0.178766 -10.211
            CHANNELS 3 Zrotation Xrotation Yrotation
            JOINT RightForeArm
            {
              OFFSET 28.733 1.87905 2.64907
              CHANNELS 3 Zrotation Xrotation Yrotation
              JOINT RightHand
              {
                OFFSET 27.4588 0.290562 -0.101845
                CHANNELS 3 Zrotation Xrotation Yrotation
                End Site
                {
                  OFFSET 17.8396 -0.255518 -0.000602873
                }
              }
            }
          }
        }
      }
    }
  }
  JOINT LeftUpLeg
  {
    OFFSET -5.61296 -2.22332 -10.2353
    CHANNELS 3 Zrotation Xrotation Yrotation
    JOINT LeftLeg
    {
      OFFSET 2.56703 -44.7417 -7.93097
      CHANNELS 3 Zrotation Xrotation Yrotation
      JOINT LeftFoot
      {
        OFFSET 3.16933 -46.5642 -3.96578
        CHANNELS 3 Zrotation Xrotation Yrotation
        JOINT LeftToeBase
        {
          OFFSET 0.346054 -6.02161 12.8035
          CHANNELS 3 Zrotation Xrotation Yrotation
          End Site
          {
            OFFSET 0.134235 -1.35082 5.13018
          }
        }
      }
    }
  }
  JOINT RightUpLeg
  {
    OFFSET -5.7928 -1.72406 10.6446
    CHANNELS 3 Zrotation Xrotation Yrotation
    JOINT RightLeg
    {
      OFFSET -2.57161 -44.7178 -7.85259
      CHANNELS 3 Zrotation Xrotation Yrotation
      JOINT RightFoot
      {
        OFFSET -3.10148 -46.5936 -4.03391
        CHANNELS 3 Zrotation Xrotation Yrotation
        JOINT RightToeBase
        {
          OFFSET -0.0828122 -6.13587 12.8035
          CHANNELS 3 Zrotation Xrotation Yrotation
          End Site
          {
            OFFSET -0.131328 -1.35082 5.13018
          }
        }
      }
    }
  }
}
MOTION
Frames: 14
Frame Time: 0.03333333333333333
0.0000 93.1000 0.0000 0.4046 -74.8452 -93.9412 -70.7658 -0.2091 87.7829 96.2083 70.7343 -9.9892 -1.1893 19.7892 4.4617 -155.8958 21.4388 -177.7033 -152.7751 60.5352 -177.6114 -1.1208 -16.6446 -36.2197 -80.4016 33.3728 -78.0470 6.1843 17.2002 -26.4086 0.0673 0.1193 0.2076 -2.5136 5.6502 45.2158 -80.4348 -28.4629 82.8170 10.3307 -16.9941 33.3707 0.4710 -0.1606 -0.6424 -42.6916 18.9671 86.2007 -4.6114 51.5631 -6.2868 -3.6241 -12.9540 -1.4817 4.7798 -12.1357 5.4920 -40.8914 -19.8392 108.4564 2.8509 50.8374 4.7939 -1.5580 -10.6275 0.2857 2.3991 -26.3163 -13.4350 
0.0000 93.1000 0.0000 -3.6985 -74.8512 -98.0965 -70.8765 -0.5689 87.8489 100.7553 70.0692 -12.6008 -2.2753 20.2335 3.7632 -155.7681 21.3044 -177.2439 -152.7468 60.3603 -176.8863 -1.4205 -15.9948 -36.0255 -83.9832 32.3070 -74.9315 6.8413 16.7058 -27.3015 -0.0606 0.3711 0.3292 -2.4946 6.2117 44.8715 -78.5782 -29.2808 85.5361 9.6562 -17.4935 33.4268 0.0044 -0.3970 -0.4042 -45.1022 19.8800 84.8890 -3.1655 47.9447 -8.3323 -5.5403 -10.1041 -1.0584 4.0519 -11.9770 7.8775 -37.9406 -19.7391 106.2551 3.7076 55.7866 6.2863 -2.1565 -15.7349 0.3131 1.1909 -23.7572 -14.9481 
0.0000 93.1000 0.0000 -8.8311 -74.8965 -103.6704 -70.9627 0.1345 88.0391 103.7880 69.9882 -15.3033 -2.3123 20.4299 3.6743 -155.1454 20.8144 -176.6314 -152.7151 59.1291 -177.7296 -0.8715 -15.4276 -35.8593 -86.8204 32.6149 -71.9249 7.9839 15.4098 -29.2863 0.0592 0.0206 0.0595 -2.2990 6.2232 44.9551 -76.0300 -28.1512 87.5382 9.3202 -16.1299 33.4838 0.0273 0.0863 -0.1378 -47.1488 21.8402 84.9704 -3.8656 45.3194 -7.6674 -6.2294 -5.7222 -0.5890 3.4960 -10.5429 7.7939 -36.0653 -17.6612 104.7397 5.5486 59.8104 6.3265 -2.2443 -18.0114 0.8555 1.8518 -20.6659 -14.6801 
0.0000 93.1000 0.0000 -10.8681 -74.0615 -106.1190 -70.9564 0.8957 88.0279 101.8318 69.9099 -15.0410 -1.6721 19.8886 3.8747 -155.0811 20.2462 -177.4856 -151.9550 58.8367 -177.9152 -0.2955 -14.9149 -36.0833 -88.9520 32.4090 -69.8410 9.2313 16.2499 -30.4101 0.2217 -0.3084 -0.1118 -1.9838 5.6926 45.4649 -73.1958 -28.2938 89.4086 8.7492 -14.9180 33.4507 0.2794 0.5278 0.0771 -47.1182 22.4119 82.8565 -3.3518 41.8031 -8.0727 -5.1800 1.4194 -0.1698 2.3544 -8.4390 7.7392 -34.1594 -15.4659 106.2003 7.2314 62.7212 6.2793 -2.9646 -20.8908 1.4882 2.8486 -19.2546 -16.3821 
0.0000 93.1000 0.0000 -7.9347 -73.8508 -103.8952 -71.1380 0.5803 88.1348 99.9281 70.1800 -13.1224 -1.2861 19.3569 3.2216 -154.8409 20.0680 -177.8525 -151.1604 58.5422 -177.5930 -0.4978 -14.8561 -35.8955 -90.6244 32.7452 -68.9546 9.9925 17.2652 -31.1032 0.0485 -0.1236 0.1315 -2.1214 6.0789 45.5809 -71.9270 -27.7994 90.8789 8.0127 -14.0596 33.4033 0.2134 0.3077 0.2369 -45.7733 21.6992 80.9029 -3.4370 40.5194 -4.9566 -4.6007 6.7459 0.4006 0.0169 -4.6741 6.9376 -33.1501 -13.1620 105.5362 6.9500 63.3231 3.8972 -3.0003 -21.6147 1.1245 1.9277 -18.6475 -14.4843 
0.0000 93.1000 0.0000 -6.8863 -72.2342 -103.1610 -71.0915 0.5223 88.1881 97.8730 70.2575 -10.1463 -1.1150 19.3518 3.1342 -154.8454 20.1290 -177.7406 -150.3817 59.1157 -177.0627 -0.6730 -14.9550 -35.2311 -91.1873 31.8805 -68.6299 9.9504 17.3132 -32.1962 0.4576 0.3422 -0.4092 -1.6351 5.6840 44.2674 -72.2794 -28.7965 90.9128 7.9186 -13.8325 33.3507 0.5622 -0.2571 0.6282 -45.3487 20.8161 79.9167 -3.2232 38.2679 -3.8468 -6.3538 7.1951 0.0062 -2.1953 0.8264 5.5182 -31.6893 -11.5885 104.5577 6.8507 63.7595 4.5685 -3.7938 -23.4227 1.8744 2.5861 -17.1619 -14.9282 
0.0000 93.1000 0.0000 -7.1125 -72.0842 -103.9471 -71.3811 0.4735 88.3598 99.8553 70.2692 -11.3329 -1.6973 20.0155 2.2294 -155.8810 20.0654 -177.0673 -151.5625 59.2323 -175.1178 -0.5548 -15.3784 -36.0753 -91.4616 32.1801 -69.0453 11.3852 17.8206 -33.0705 0.0657 -0.1432 -0.1493 -2.0140 5.9038 44.2132 -71.3641 -28.1852 91.1590 8.3476 -13.0320 35.1454 -0.0038 0.2276 0.2914 -46.1035 20.3861 80.8719 -3.0785 36.5137 -5.0976 -4.3613 3.6097 0.1692 -2.2444 0.1011 3.1767 -32.1672 -10.1514 105.2450 6.7489 64.0768 3.8595 -3.0242 -24.0417 1.2322 2.1122 -15.0570 -15.1735 
0.0000 93.1000 0.0000 -6.8218 -71.0403 -105.0726 -71.2887 0.8697 88.3754 99.8283 70.1385 -12.5519 -1.8103 19.9224 1.8513 -155.8919 20.1047 -176.5492 -151.0693 59.0023 -176.1808 -0.1314 -15.4300 -35.8844 -92.1581 31.8296 -68.8435 12.0368 17.7569 -35.1528 -0.0765 -0.3064 0.0528 -1.7813 5.8776 44.1329 -69.9266 -27.8258 91.7195 7.8168 -12.7881 34.8030 0.1748 0.4177 0.3939 -44.8194 18.2554 83.0468 -3.5262 36.3322 -5.1091 -5.2890 0.6527 -0.0005 -0.7713 -1.1536 4.6953 -31.7316 -7.6939 105.1404 5.9748 62.7703 3.0575 -2.6538 -23.9461 1.3594 1.8707 -11.7542 -14.3041 
0.0000 93.1000 0.0000 -6.3749 -70.1802 -105.3779 -71.3542 1.0847 88.3313 99.1477 69.6318 -11.8522 -1.7311 19.8455 2.1994 -156.9970 19.9414 -176.7135 -150.9357 58.1650 -175.7440 0.0261 -15.8460 -35.9180 -92.3010 31.5381 -68.6935 11.9867 16.9397 -35.9473 -0.0145 -0.2114 0.2597 -1.5056 6.1815 44.3561 -68.9110 -26.3888 92.1054 7.2476 -12.1352 34.1353 -0.0235 0.3045 0.5946 -43.9559 16.3835 85.8282 -2.1865 35.7993 -4.0717 -3.1656 -2.7558 -0.7431 0.0706 -3.3849 4.0339 -31.5814 -6.5701 104.4196 5.9512 60.7681 3.1611 -3.0346 -23.4768 1.7119 1.9836 -11.0219 -12.4060 
0.0000 93.1000 0.0000 -5.7874 -69.5890 -105.4991 -71.1106 0.7330 88.2791 99.8001 69.9999 -11.5979 -2.2981 19.8782 2.1287 -156.9673 20.0184 -176.5271 -151.0229 58.2375 -176.7120 -0.1095 -16.0065 -35.9616 -92.1678 32.1862 -69.6815 11.6838 16.4129 -37.1815 0.0025 -0.3801 -0.1422 -1.9447 6.1487 44.4047 -67.7766 -24.9962 91.9922 7.1485 -12.0743 33.1240 -0.2404 0.4621 -0.0347 -43.1213 13.7777 88.3688 -1.7875 36.5055 -3.5902 -3.3985 -4.7636 -0.7109 1.2366 -6.1158 4.9809 -32.2541 -5.9347 104.6058 4.9062 57.6197 4.4056 -1.5964 -22.5693 1.3384 1.7598 -8.9068 -13.4376 
0.0000 93.1000 0.0000 -5.1708 -68.8904 -104.4862 -71.1112 1.4023 88.1226 100.2188 69.9812 -12.2839 -2.0077 20.0311 2.2374 -157.0417 20.4565 -176.9324 -151.0634 59.0022 -175.3451 0.3357 -16.1965 -36.0758 -91.5481 31.9963 -69.9909 12.3230 16.1249 -38.9879 0.2557 -0.7636 -0.5613 -1.6655 6.0649 44.2141 -68.0790 -25.0342 92.1711 6.9745 -11.9453 32.2592 -0.0264 0.8824 -0.1285 -42.1714 12.2086 91.9675 -2.0985 37.5371 -2.1337 -1.9159 -5.7193 -1.0218 1.9578 -5.2145 3.0373 -33.8589 -4.9726 104.2444 3.8905 56.1040 4.2757 -2.0021 -22.3128 1.7754 1.6776 -7.1202 -12.8443 
0.0000 93.1000 0.0000 -3.9914 -68.8044 -102.3689 -71.0613 1.4229 88.1161 100.1544 70.1164 -12.1009 -2.1276 19.6245 2.4385 -157.1499 20.3108 -177.1051 -151.8874 59.2621 -176.1349 0.1703 -15.7264 -36.6741 -91.8893 30.6577 -69.9042 12.9240 16.3972 -40.0951 0.2643 -0.2187 -0.4228 -1.1302 5.6041 43.3270 -69.0243 -24.9776 91.1645 6.4636 -11.5323 32.1135 0.8356 0.2328 0.5240 -41.6496 9.4744 94.1796 -2.0315 38.4472 -2.3657 -0.6244 -6.5914 -1.8822 2.2091 -6.7584 3.7821 -35.0581 -4.0069 103.3168 2.9184 52.8622 3.6163 -3.3513 -20.5377 2.1629 1.8666 -6.8182 -10.2109 
0.0000 93.1000 0.0000 -2.1421 -69.1680 -100.3554 -71.1083 1.4312 88.2725 100.1160 70.3316 -11.0088 -1.8207 19.1876 2.3303 -155.9795 20.1680 -178.2702 -152.3739 58.9745 -175.2833 0.3887 -15.8617 -36.0085 -92.5064 30.5832 -69.9150 13.8981 17.0228 -41.3142 0.3957 -0.7302 -0.2136 -1.6071 5.7054 44.0027 -68.7084 -25.1865 90.9494 6.0695 -10.8410 31.3396 0.8104 0.8283 0.2804 -41.9712 7.1736 94.8404 -2.8738 39.5904 -2.1728 0.2209 -8.8040 -1.5161 2.1494 -8.6522 4.9858 -37.0575 -2.5908 102.5047 2.6309 50.0930 2.2475 -3.1284 -18.5269 1.5443 1.4574 -5.9738 -9.6085 
0.0000 93.1000 0.0000 -1.2310 -69.9266 -99.6288 -70.9993 1.4519 88.4255 98.1543 69.6150 -9.9174 -1.1651 19.0295 2.2362 -155.0744 19.7773 -179.3917 -151.0806 59.1927 -175.8025 0.1799 -16.0219 -36.0293 -92.2911 30.8197 -69.8241 13.5526 16.1913 -41.8082 0.3315 -0.3784 -0.1327 -1.2952 6.2147 44.1049 -69.9160 -24.9442 90.0158 5.2350 -10.6955 30.1801 0.7712 0.4254 0.7037 -42.3160 4.7200 96.8835 -3.0904 40.4664 -3.0838 -0.0765 -10.8642 -2.1887 2.3645 -8.7709 5.8412 -39.1314 -1.9092 102.0231 2.1653 46.9993 1.5947 -2.8241 -17.5555 1.8965 1.3369 -4.5667 -8.4259 
